# xmcd
#
# Track frame offsets:
#	150
#	18178
#	31870
#	47464
#	61585
#	75786
#	92925
#	109650
#	129184
#	145715
#	161899
#	178113
#	194142
#	209878
#	226725
#	242651
#	257327
#
# Disc length: 3602 seconds
#
# Revision: 1
# Processed by: cddbd v1.5.2PL0 Copyright (c) Steve Scherf et al.
# Submitted via: audiograbber 1.83.01
#
DISCID=d50e1011
DTITLE=Various Artist - CDX 567
DYEAR=2013
DGENRE=Country
TTITLE0=Brad Paisley - Beat This Summer (Radio Edit)
TTITLE1=Kacey Musgraves - Blowin Smoke (Radio Edit)
TTITLE2=Billy Currington - Hey Girl
TTITLE3=Wynonna - Something You Can't Live Without
TTITLE4=Casey James - The Good Life (Edit)
TTITLE5=Little Big Town - Your Side Of The Bed
TTITLE6=Branch And Dean - Glad She's Not An Angel
TTITLE7=IMAJ - Guess Who's Coming To Dinner
TTITLE8=Lizzie Sider - I Love You That Much
TTITLE9=Steve Richard - Keep On Rollin'
TTITLE10=Jared Ashley - Last Train To Memphis
TTITLE11=Jon David - Party In The Truck
TTITLE12=Lucas Hoge - Should've Loved
TTITLE13=Mike Aiken - Summertime Song
TTITLE14=Adam Fears - There's A Girl Out There
TTITLE15=Vince Hatfield - World Goes Round
TTITLE16=Miss Jeanie - Walk A Little Faster
EXTD=
EXTT0=
EXTT1=
EXTT2=
EXTT3=
EXTT4=
EXTT5=
EXTT6=
EXTT7=
EXTT8=
EXTT9=
EXTT10=
EXTT11=
EXTT12=
EXTT13=
EXTT14=
EXTT15=
EXTT16=
PLAYORDER=
